<?xml version="1.0" encoding="utf-8"?>
<!-- Generator: Adobe Illustrator 22.0.1, SVG Export Plug-In . SVG Version: 6.00 Build 0)  -->
<svg version="1.1" id="Layer_1" xmlns="http://www.w3.org/2000/svg" xmlns:xlink="http://www.w3.org/1999/xlink" x="0px" y="0px"
	 viewBox="0 0 5061.6 5061.6" style="enable-background:new 0 0 5061.6 5061.6;" xml:space="preserve">
<style type="text/css">
	.st0{clip-path:url(#SVGID_2_);}
	.st1{fill:#2D6F8E;}
	.st2{fill:#7A7A7A;}
	.st3{fill:#C4C4C4;}
	.st4{fill:#D9D9D9;}
	.st5{fill:#F2F2F2;}
	.st6{fill:#FFFFFF;}
	.st7{fill:#EFEFEF;}
</style>
<g>
	<g>
		<defs>
			<rect id="SVGID_1_" width="5061.6" height="5061.6"/>
		</defs>
		<clipPath id="SVGID_2_">
			<use xlink:href="#SVGID_1_"  style="overflow:visible;"/>
		</clipPath>
		<g id="Layer_1_1_" class="st0">
			<rect x="-80" y="-164.6" class="st1" width="5206" height="5343.7"/>
		</g>
	</g>
	<g>
		<g id="Layer_2_1_">
			<path class="st2" d="M709.1,3851.2c0,0,108,79.7,270.5,119.8c0,0-326.7,63.6-616.6,15.8c0,0-116.7-89.6-215.1-231.2
				C147.8,3755.5,543.2,3866.9,709.1,3851.2z"/>
			<path class="st3" d="M728.9,3796c0,0,108,79.7,270.5,119.8c0,0-326.7,63.6-616.6,15.8c0,0-116.7-89.6-215.1-231.2
				C167.6,3700.3,563,3811.7,728.9,3796z"/>
			<polygon class="st4" points="1454.3,4351.7 2880.3,3854.2 2880.3,3521.1 1454.1,3892.9 			"/>
			<polygon class="st5" points="460.4,3446 438.1,3428.4 437.7,3428.5 437.7,3807.8 1454.3,4351.7 1454.3,3892.9 			"/>
			<polygon class="st6" points="1524.4,3161 438,3428.4 460.3,3446 1454.1,3892.9 2880.3,3521.1 2880.3,3519.1 			"/>
			<polygon class="st5" points="1767.9,3936.1 341.9,3438.6 341.9,3105.5 1768.1,3477.3 			"/>
			<polygon class="st4" points="2761.8,3030.4 2784.1,3012.8 2784.5,3012.9 2784.5,3392.2 1767.9,3936.1 1767.9,3477.3 			"/>
			<polygon class="st6" points="1697.8,2745.4 2784.2,3012.8 2761.9,3030.4 1768.1,3477.3 341.9,3105.5 341.9,3103.5 			"/>
			<path class="st3" d="M761.5,3021.1c0,0,88.2,101.1,238.2,175.4c0,0-332.8-8.5-605.4-117.9c0,0-94.5-112.8-160-272.3
				C234.3,2806.3,596.2,3000.5,761.5,3021.1z"/>
			<path class="st3" d="M340,3251.6c0,0,102.1,84.2,343,143.7c0,0-192-13.7-343-87.5V3251.6z"/>
			<path class="st3" d="M2881,3708.8c0,0-102.1,84.2-343,143.7c0,0,187-13.7,343-87.5V3708.8z"/>
			<path class="st6" d="M3069.6,2927.6c-264.5,293.2-555.2,463.2-555.2,463.2c-246.7,9.2-500.4-17.1-722.6-54.1l0,0
				c-383.2-63.8-673.1-159.4-673.1-159.4c380.5-44.3,648.8-194.1,648.8-194.1C2139.5,3066.6,3069.6,2927.6,3069.6,2927.6z"/>
			<polygon class="st4" points="1376.2,3519.4 2802.2,3021.9 2802.2,2688.8 1376,3060.6 			"/>
			<polygon class="st5" points="382.3,2613.7 360,2596.2 359.6,2596.2 359.6,2975.5 1376.2,3519.4 1376.2,3060.6 			"/>
			<polygon class="st6" points="2802.2,2686.9 2802.2,2688.8 1376,3060.6 790.7,2797.4 453,2645.5 382.2,2613.7 359.9,2596.2 
				393.5,2587.9 1078.7,2419.2 1446.3,2328.8 			"/>
			<path class="st3" d="M979.2,3111.7c0,0,312.5,116.5,390.6,211.8c0,0,248.4-110.9,403.1-131.2l-391.4,50.9
				C1381.4,3243.1,1116.4,3132.3,979.2,3111.7z"/>
			<path class="st3" d="M1541.9,3749.1c0,0,176.7,32.9,227,76.3c0,0,121.6-81.9,201.9-107l-203.1,63.3
				C1767.7,3781.6,1616.7,3747.3,1541.9,3749.1z"/>
			<path class="st6" d="M1111.2,3918.1c0,0,128.5,151.8,343.1,266.7c0,0,91.7-125,600-183.3c0,0-426.6-21.6-600,25
				C1454.3,4026.4,1442.9,4000.9,1111.2,3918.1z"/>
			<path class="st3" d="M2129.9,2629.3c0,0-674.9,219.9-1339.3,168.1L453,2645.5c-18.7-17.6-38.6-36.8-59.5-57.6l685.2-168.7
				c145.7,19.5,280.1,28.8,380.5,19.3C1459.2,2438.5,1727.1,2529.8,2129.9,2629.3z"/>
			<path class="st6" d="M1459.2,2332.3c0,0,267.9,197.6,670.7,297c0,0-810.2,157.8-1529,39.1c0,0-289.3-222.3-533.5-573.4
				C67.5,2095,1048,2371.1,1459.2,2332.3z"/>
			<path class="st7" d="M3119.4,2356.5c-225.5,324.2-492.5,529.4-492.5,529.4c-243.6,40.2-498.6,46-723.7,37.3l0,0
				c-388.2-15.1-687.8-73.4-687.8-73.4c371.9-91.8,619.2-274.2,619.2-274.2C2214.2,2611.5,3119.4,2356.5,3119.4,2356.5z"/>
			<path class="st3" d="M1903.2,2923.2l-181.6,47.4l-506.2-120.8C1215.4,2849.8,1515,2908.2,1903.2,2923.2z"/>
			<path class="st2" d="M2579.1,3831.2c0,0,108,79.7,270.5,119.8c0,0-326.7,63.6-616.6,15.8c0,0-116.7-89.6-215.1-231.2
				C2017.8,3735.5,2413.2,3846.9,2579.1,3831.2z"/>
			<path class="st3" d="M2598.9,3776c0,0,108,79.7,270.5,119.8c0,0-326.7,63.6-616.6,15.8c0,0-116.7-89.6-215.1-231.2
				C2037.6,3680.3,2433,3791.7,2598.9,3776z"/>
			<polygon class="st4" points="3324.3,4331.7 4750.3,3834.2 4750.3,3501.1 3324.1,3872.9 			"/>
			<polygon class="st5" points="2330.4,3426 2308.1,3408.4 2307.7,3408.5 2307.7,3787.8 3324.3,4331.7 3324.3,3872.9 			"/>
			<polygon class="st6" points="3394.4,3141 2308,3408.4 2330.3,3426 3324.1,3872.9 4750.3,3501.1 4750.3,3499.1 			"/>
			<polygon class="st5" points="3637.9,3916.1 2211.9,3418.6 2211.9,3085.5 3638.1,3457.3 			"/>
			<polygon class="st4" points="4631.8,3010.4 4654.1,2992.8 4654.5,2992.9 4654.5,3372.2 3637.9,3916.1 3637.9,3457.3 			"/>
			<polygon class="st6" points="3567.8,2725.4 4654.2,2992.8 4631.9,3010.4 3638.1,3457.3 2211.9,3085.5 2211.9,3083.5 			"/>
			<path class="st3" d="M2210,3231.6c0,0,102.1,84.2,343,143.7c0,0-192-13.7-343-87.5V3231.6z"/>
			<path class="st3" d="M4751,3688.8c0,0-102.1,84.2-343,143.7c0,0,187-13.7,343-87.5V3688.8z"/>
			<path class="st6" d="M4939.6,2907.6c-264.5,293.2-555.2,463.2-555.2,463.2c-246.7,9.2-500.4-17.1-722.6-54.1l0,0
				c-383.2-63.8-673.1-159.4-673.1-159.4c380.5-44.3,648.8-194.1,648.8-194.1C4009.5,3046.6,4939.6,2907.6,4939.6,2907.6z"/>
			<path class="st3" d="M4312.2,3091c0,0,106,82.4,267.4,126.6c0,0-328.2,55.3-616.8,0.1c0,0-114.3-92.6-209.2-236.6
				C3753.6,2981.1,4146,3102.5,4312.2,3091z"/>
			<polygon class="st4" points="3246.2,3499.4 4672.2,3001.9 4672.2,2668.8 3246,3040.6 			"/>
			<polygon class="st5" points="2252.3,2593.7 2230,2576.2 2229.6,2576.2 2229.6,2955.5 3246.2,3499.4 3246.2,3040.6 			"/>
			<polygon class="st6" points="4672.2,2666.9 4672.2,2668.8 3246,3040.6 2660.7,2777.4 2323,2625.5 2252.2,2593.7 2229.9,2576.2 
				2263.5,2567.9 2948.7,2399.2 3316.3,2308.8 			"/>
			<path class="st3" d="M2849.2,3091.7c0,0,312.5,116.5,390.6,211.8c0,0,248.4-110.9,403.1-131.2l-391.4,50.9
				C3251.4,3223.1,2986.4,3112.3,2849.2,3091.7z"/>
			<path class="st3" d="M3411.9,3729.1c0,0,176.7,32.9,227,76.3c0,0,121.6-81.9,201.9-107l-203.1,63.3
				C3637.7,3761.6,3486.7,3727.3,3411.9,3729.1z"/>
			<path class="st6" d="M2981.2,3898.1c0,0,128.5,151.8,343.1,266.7c0,0,91.7-125,600-183.3c0,0-426.6-21.6-600,25
				C3324.3,4006.4,3312.9,3980.9,2981.2,3898.1z"/>
			<path class="st3" d="M3999.9,2609.3c0,0-674.9,219.9-1339.3,168.1L2323,2625.5c-18.7-17.6-38.6-36.8-59.5-57.6l685.2-168.7
				c145.7,19.5,280.1,28.8,380.5,19.3C3329.2,2418.5,3597.1,2509.8,3999.9,2609.3z"/>
			<path class="st6" d="M3329.2,2312.3c0,0,267.9,197.6,670.7,297c0,0-810.2,157.8-1529,39.1c0,0-289.3-222.3-533.5-573.4
				C1937.5,2075,2918,2351.1,3329.2,2312.3z"/>
			<path class="st7" d="M4989.4,2336.5c-225.5,324.2-492.5,529.4-492.5,529.4c-243.6,40.2-498.6,46-723.7,37.3l0,0
				c-388.2-15.1-687.8-73.4-687.8-73.4c371.9-91.8,619.2-274.2,619.2-274.2C4084.2,2591.5,4989.4,2336.5,4989.4,2336.5z"/>
			<path class="st3" d="M3773.2,2903.2l-181.6,47.4l-506.2-120.8C3085.4,2829.8,3385,2888.2,3773.2,2903.2z"/>
			<path class="st2" d="M1559.1,2428.2c0,0,108,79.7,270.5,119.8c0,0-326.7,63.6-616.6,15.8c0,0-116.7-89.6-215.1-231.2
				C997.8,2332.5,1393.2,2443.9,1559.1,2428.2z"/>
			<path class="st3" d="M1578.9,2373c0,0,108,79.7,270.5,119.8c0,0-326.7,63.6-616.6,15.8c0,0-116.7-89.6-215.1-231.2
				C1017.6,2277.3,1413,2388.7,1578.9,2373z"/>
			<path class="st2" d="M3704.3,1759.9c0,0,129.9,33.7,295.6,10.3c0,0-279.5,180.8-566.3,244.4c0,0-141.7-39.7-285.8-134.4
				C3147.8,1880.2,3556.3,1836.2,3704.3,1759.9z"/>
			<path class="st3" d="M3563.1,1794.3c0,0,129.9,33.7,295.6,10.3c0,0-279.5,180.8-566.3,244.4c0,0-141.7-39.7-285.8-134.4
				C3006.6,1914.6,3415,1870.6,3563.1,1794.3z"/>
			<polygon class="st4" points="2304.3,2928.7 3730.3,2431.2 3730.3,2098.1 2304.1,2469.9 			"/>
			<polygon class="st5" points="1310.4,2023 1288.1,2005.4 1287.7,2005.5 1287.7,2384.8 2304.3,2928.7 2304.3,2469.9 			"/>
			<polygon class="st6" points="2374.4,1738 1288,2005.4 1310.3,2023 2304.1,2469.9 3730.3,2098.1 3730.3,2096.1 			"/>
			<polygon class="st5" points="2617.9,2513.1 1191.9,2015.6 1191.9,1682.5 2618.1,2054.3 			"/>
			<polygon class="st4" points="3611.8,1607.4 3634.1,1589.8 3634.5,1589.9 3634.5,1969.2 2617.9,2513.1 2617.9,2054.3 			"/>
			<polygon class="st6" points="2547.8,1322.4 3634.2,1589.8 3611.9,1607.4 2618.1,2054.3 1191.9,1682.5 1191.9,1680.5 			"/>
			<path class="st3" d="M1190,1828.6c0,0,102.1,84.2,343,143.7c0,0-192-13.7-343-87.5V1828.6z"/>
			<path class="st3" d="M3731,2285.8c0,0-102.1,84.2-343,143.7c0,0,187-13.7,343-87.5V2285.8z"/>
			<path class="st6" d="M3919.6,1504.6c-264.5,293.2-555.2,463.2-555.2,463.2c-246.7,9.2-500.4-17.1-722.6-54.1l0,0
				c-383.2-63.8-673.1-159.4-673.1-159.4c380.5-44.3,648.8-194.1,648.8-194.1C2989.5,1643.6,3919.6,1504.6,3919.6,1504.6z"/>
			<polygon class="st4" points="2226.2,2096.4 3652.2,1598.9 3652.2,1265.8 2226,1637.6 			"/>
			<polygon class="st5" points="1232.3,1190.7 1210,1173.2 1209.6,1173.2 1209.6,1552.5 2226.2,2096.4 2226.2,1637.6 			"/>
			<polygon class="st6" points="3652.2,1263.9 3652.2,1265.8 2226,1637.6 1640.7,1374.4 1303,1222.5 1232.2,1190.7 1209.9,1173.2 
				1243.5,1164.9 1928.7,996.2 2296.3,905.8 			"/>
			<path class="st3" d="M1829.2,1688.7c0,0,312.5,116.5,390.6,211.8c0,0,248.4-110.9,403.1-131.2l-391.4,50.9
				C2231.4,1820.1,1966.4,1709.3,1829.2,1688.7z"/>
			<path class="st3" d="M2391.9,2326.1c0,0,176.7,32.9,227,76.3c0,0,121.6-81.9,201.9-107l-203.1,63.3
				C2617.7,2358.6,2466.7,2324.3,2391.9,2326.1z"/>
			<path class="st6" d="M1961.2,2495.1c0,0,128.5,151.8,343.1,266.7c0,0,91.7-125,600-183.3c0,0-426.6-21.6-600,25
				C2304.3,2603.4,2292.9,2577.9,1961.2,2495.1z"/>
			<path class="st3" d="M2979.9,1206.3c0,0-674.9,219.9-1339.3,168.1L1303,1222.5c-18.7-17.6-38.6-36.8-59.5-57.6l685.2-168.7
				c145.7,19.5,280.1,28.8,380.5,19.3C2309.2,1015.5,2577.1,1106.8,2979.9,1206.3z"/>
			<path class="st6" d="M2309.2,909.3c0,0,267.9,197.6,670.7,297c0,0-810.2,157.8-1529,39.1c0,0-289.3-222.3-533.5-573.4
				C917.5,672,1898,948.1,2309.2,909.3z"/>
			<path class="st7" d="M3969.4,933.5c-225.5,324.2-492.5,529.4-492.5,529.4c-243.6,40.2-498.6,46-723.7,37.3l0,0
				c-388.2-15.1-687.8-73.4-687.8-73.4c371.9-91.8,619.2-274.2,619.2-274.2C3064.2,1188.5,3969.4,933.5,3969.4,933.5z"/>
			<path class="st3" d="M2753.2,1500.2l-181.6,47.4l-506.2-120.8C2065.4,1426.8,2365,1485.2,2753.2,1500.2z"/>
		</g>
	</g>
</g>
</svg>
